{
  "asset": {
    "generator": "Khronos glTF Blender I/O v3.3.32",
    "version": "2.0"
  },
  "scene": 0,
  "scenes": [
    {
      "name": "Scene",
      "nodes": [
        0
      ]
    }
  ],
  "nodes": [
    {
      "mesh": 0,
      "name": "trowel_01"
    }
  ],
  "materials": [
    {
      "doubleSided": true,
      "name": "trowel_01",
      "normalTexture": {
        "index": 0
      },
      "pbrMetallicRoughness": {
        "baseColorTexture": {
          "index": 1
        },
        "metallicRoughnessTexture": {
          "index": 2
        }
      }
    }
  ],
  "meshes": [
    {
      "name": "Cylinder.001",
      "primitives": [
        {
          "attributes": {
            "POSITION": 0,
            "NORMAL": 1,
            "TEXCOORD_0": 2
          },
          "indices": 3,
          "material": 0
        }
      ]
    }
  ],
  "textures": [
    {
      "sampler": 0,
      "source": 0
    },
    {
      "sampler": 0,
      "source": 1
    },
    {
      "sampler": 0,
      "source": 2
    }
  ],
  "images": [
    {
      "mimeType": "image/jpeg",
      "name": "trowel_01_nor_gl",
      "uri": "textures/trowel_01_nor_gl_1k.jpg"
    },
    {
      "mimeType": "image/jpeg",
      "name": "trowel_01_diff",
      "uri": "textures/trowel_01_diff_1k.jpg"
    },
    {
      "mimeType": "image/jpeg",
      "name": "trowel_01_metal-trowel_01_rough",
      "uri": "textures/trowel_01_arm_1k.jpg"
    }
  ],
  "accessors": [
    {
      "bufferView": 0,
      "componentType": 5126,
      "count": 3016,
      "max": [
        0.04955805838108063,
        0.05544774606823921,
        0.20698264241218567
      ],
      "min": [
        -0.049566976726055145,
        -0.04718025028705597,
        -0.13990439474582672
      ],
      "type": "VEC3"
    },
    {
      "bufferView": 1,
      "componentType": 5126,
      "count": 3016,
      "type": "VEC3"
    },
    {
      "bufferView": 2,
      "componentType": 5126,
      "count": 3016,
      "type": "VEC2"
    },
    {
      "bufferView": 3,
      "componentType": 5123,
      "count": 15726,
      "type": "SCALAR"
    }
  ],
  "bufferViews": [
    {
      "buffer": 0,
      "byteLength": 36192,
      "byteOffset": 0,
      "target": 34962
    },
    {
      "buffer": 0,
      "byteLength": 36192,
      "byteOffset": 36192,
      "target": 34962
    },
    {
      "buffer": 0,
      "byteLength": 24128,
      "byteOffset": 72384,
      "target": 34962
    },
    {
      "buffer": 0,
      "byteLength": 31452,
      "byteOffset": 96512,
      "target": 34963
    }
  ],
  "samplers": [
    {
      "magFilter": 9729,
      "minFilter": 9987
    }
  ],
  "buffers": [
    {
      "byteLength": 127964,
      "uri": "trowel_01.bin"
    }
  ]
}