{
  "asset": {
    "generator": "Khronos glTF Blender I/O v3.3.32",
    "version": "2.0"
  },
  "scene": 0,
  "scenes": [
    {
      "name": "Scene",
      "nodes": [
        0,
        1,
        2
      ]
    }
  ],
  "nodes": [
    {
      "mesh": 0,
      "name": "gate_latch_01_frame"
    },
    {
      "mesh": 1,
      "name": "gate_latch_01_latch",
      "translation": [
        0.14613670110702515,
        0.00035465345717966557,
        0.005860715173184872
      ]
    },
    {
      "mesh": 2,
      "name": "gate_latch_01_hook",
      "translation": [
        0.00014534266665577888,
        0.0018835035152733326,
        0.015300548635423183
      ]
    }
  ],
  "materials": [
    {
      "doubleSided": true,
      "name": "gate_latch_01",
      "normalTexture": {
        "index": 0
      },
      "pbrMetallicRoughness": {
        "baseColorTexture": {
          "index": 1
        },
        "metallicRoughnessTexture": {
          "index": 2
        }
      }
    }
  ],
  "meshes": [
    {
      "name": "Cylinder.002",
      "primitives": [
        {
          "attributes": {
            "POSITION": 0,
            "NORMAL": 1,
            "TEXCOORD_0": 2
          },
          "indices": 3,
          "material": 0
        }
      ]
    },
    {
      "name": "Cylinder.001",
      "primitives": [
        {
          "attributes": {
            "POSITION": 4,
            "NORMAL": 5,
            "TEXCOORD_0": 6
          },
          "indices": 7,
          "material": 0
        }
      ]
    },
    {
      "name": "Cylinder.003",
      "primitives": [
        {
          "attributes": {
            "POSITION": 8,
            "NORMAL": 9,
            "TEXCOORD_0": 10
          },
          "indices": 11,
          "material": 0
        }
      ]
    }
  ],
  "textures": [
    {
      "sampler": 0,
      "source": 0
    },
    {
      "sampler": 0,
      "source": 1
    },
    {
      "sampler": 0,
      "source": 2
    }
  ],
  "images": [
    {
      "mimeType": "image/jpeg",
      "name": "gate_latch_01_nor_gl",
      "uri": "textures/gate_latch_01_nor_gl_1k.jpg"
    },
    {
      "mimeType": "image/jpeg",
      "name": "gate_latch_01_diff",
      "uri": "textures/gate_latch_01_diff_1k.jpg"
    },
    {
      "mimeType": "image/jpeg",
      "name": "gate_latch_01_metal-gate_latch_01_rough",
      "uri": "textures/gate_latch_01_arm_1k.jpg"
    }
  ],
  "accessors": [
    {
      "bufferView": 0,
      "componentType": 5126,
      "count": 2130,
      "max": [
        0.03051874227821827,
        0.040152255445718765,
        0.06567295640707016
      ],
      "min": [
        -0.030518746003508568,
        -0.03682224452495575,
        0.00021857209503650665
      ],
      "type": "VEC3"
    },
    {
      "bufferView": 1,
      "componentType": 5126,
      "count": 2130,
      "type": "VEC3"
    },
    {
      "bufferView": 2,
      "componentType": 5126,
      "count": 2130,
      "type": "VEC2"
    },
    {
      "bufferView": 3,
      "componentType": 5123,
      "count": 8868,
      "type": "SCALAR"
    },
    {
      "bufferView": 4,
      "componentType": 5126,
      "count": 828,
      "max": [
        0.0273746345192194,
        0.01180361770093441,
        0.03650236502289772
      ],
      "min": [
        -0.17772036790847778,
        -0.011803616769611835,
        -0.000020049204977112822
      ],
      "type": "VEC3"
    },
    {
      "bufferView": 5,
      "componentType": 5126,
      "count": 828,
      "type": "VEC3"
    },
    {
      "bufferView": 6,
      "componentType": 5126,
      "count": 828,
      "type": "VEC2"
    },
    {
      "bufferView": 7,
      "componentType": 5123,
      "count": 4032,
      "type": "SCALAR"
    },
    {
      "bufferView": 8,
      "componentType": 5126,
      "count": 846,
      "max": [
        0.0016911119455471635,
        0.046718697994947433,
        0.059667374938726425
      ],
      "min": [
        -0.0016502923099324107,
        -0.024163294583559036,
        -0.008264887146651745
      ],
      "type": "VEC3"
    },
    {
      "bufferView": 9,
      "componentType": 5126,
      "count": 846,
      "type": "VEC3"
    },
    {
      "bufferView": 10,
      "componentType": 5126,
      "count": 846,
      "type": "VEC2"
    },
    {
      "bufferView": 11,
      "componentType": 5123,
      "count": 3540,
      "type": "SCALAR"
    }
  ],
  "bufferViews": [
    {
      "buffer": 0,
      "byteLength": 25560,
      "byteOffset": 0,
      "target": 34962
    },
    {
      "buffer": 0,
      "byteLength": 25560,
      "byteOffset": 25560,
      "target": 34962
    },
    {
      "buffer": 0,
      "byteLength": 17040,
      "byteOffset": 51120,
      "target": 34962
    },
    {
      "buffer": 0,
      "byteLength": 17736,
      "byteOffset": 68160,
      "target": 34963
    },
    {
      "buffer": 0,
      "byteLength": 9936,
      "byteOffset": 85896,
      "target": 34962
    },
    {
      "buffer": 0,
      "byteLength": 9936,
      "byteOffset": 95832,
      "target": 34962
    },
    {
      "buffer": 0,
      "byteLength": 6624,
      "byteOffset": 105768,
      "target": 34962
    },
    {
      "buffer": 0,
      "byteLength": 8064,
      "byteOffset": 112392,
      "target": 34963
    },
    {
      "buffer": 0,
      "byteLength": 10152,
      "byteOffset": 120456,
      "target": 34962
    },
    {
      "buffer": 0,
      "byteLength": 10152,
      "byteOffset": 130608,
      "target": 34962
    },
    {
      "buffer": 0,
      "byteLength": 6768,
      "byteOffset": 140760,
      "target": 34962
    },
    {
      "buffer": 0,
      "byteLength": 7080,
      "byteOffset": 147528,
      "target": 34963
    }
  ],
  "samplers": [
    {
      "magFilter": 9729,
      "minFilter": 9987
    }
  ],
  "buffers": [
    {
      "byteLength": 154608,
      "uri": "gate_latch_01.bin"
    }
  ]
}